<svg id="Layer_1" data-name="Layer 1" xmlns="http://www.w3.org/2000/svg" viewBox="0 0 246.7 255.3"><defs><style>.cls-1{fill:#a4a5a4;opacity:0.31;}</style></defs><path class="cls-1" d="M374,186.7a30,30,0,1,0-11.3-11.3l-15.2,15.2a54.9,54.9,0,0,0-44.5-38V124.9a30,30,0,1,0-16,0v27.7a55,55,0,0,0-44.3,37.3l-14.5-14.5a30,30,0,1,0-11.3,11.3l23.2,23.2a54.8,54.8,0,0,0,16,36l-19.2,19.3a30,30,0,1,0,11.3,11.3l20.9-21A54.1,54.1,0,0,0,295,262a54.8,54.8,0,0,0,25.8-6.4l20.9,20.9A30,30,0,1,0,353,265.2L333.8,246a55,55,0,0,0,16.1-35.2Zm2-38.8a18,18,0,0,1,25.5,25.4A18,18,0,1,1,376,147.9ZM214.8,173.3a18,18,0,1,1,0-25.4A18,18,0,0,1,214.8,173.3Zm20,130.7a18,18,0,1,1,0-25.5A18,18,0,0,1,234.8,304ZM355,278.5a18,18,0,1,1,0,25.5A18.1,18.1,0,0,1,355,278.5ZM277,96a18,18,0,1,1,18,18A18.1,18.1,0,0,1,277,96Zm18,144a33,33,0,1,1,33-33A33,33,0,0,1,295,240Z" transform="translate(-172.1 -66)"/></svg>